<?xml version="1.0" encoding="utf-8"?>
<!-- Generator: Adobe Illustrator 23.0.4, SVG Export Plug-In . SVG Version: 6.00 Build 0)  -->
<svg version="1.1" id="Laag_1" xmlns="http://www.w3.org/2000/svg" xmlns:xlink="http://www.w3.org/1999/xlink" x="0px" y="0px"
	 viewBox="0 0 198.8 35.4" style="enable-background:new 0 0 198.8 35.4;" xml:space="preserve">
<style type="text/css">
	.st0{fill:#FFFFFF;}
	.st1{fill:#009EE3;}
</style>
<title>V2</title>
<g>
	<g>
		<path class="st0" d="M27,24.8c-0.2-0.2-0.4-0.2-0.6-0.1c-0.1,0-0.1,0.1-0.1,0.2c-1.6,2.1-4.2,3.4-6.9,3.4c-3.6,0-7.2-2.8-7.2-8
			s3.9-7.9,7.1-7.9c3.8,0,6.1,2.5,6.2,4.4v0.7c0,0.3,0.2,0.5,0.4,0.5c0,0,0.1,0,0.1,0h2c0.3,0,0.5-0.2,0.5-0.4c0,0,0-0.1,0-0.1v-7.3
			c0-0.4-0.2-0.6-0.5-0.6h-1.7c-0.3,0-0.5,0.2-0.6,0.5c0,0,0,0.1,0,0.1v2.4l0,0c-0.9-1.3-3-3.2-6.9-3.2c-5.2,0-10.3,3.9-10.3,10.9
			s4.8,11,10.7,11c3.6,0.1,7.1-1.6,9.2-4.5c0.2-0.2,0.1-0.6-0.1-0.7c0,0,0,0,0,0L27,24.8z"/>
		<path class="st0" d="M72,20.4c0-6.9-4.8-11-10.7-11c-3.6-0.1-7.1,1.5-9.2,4.5c-0.2,0.2-0.1,0.6,0.1,0.8c0,0,0,0,0,0l1.2,1.2
			c0.2,0.2,0.5,0.2,0.7,0c0,0,0.1-0.1,0.1-0.1c1.7-2.1,4.2-3.3,6.9-3.3c3.4,0,7,2.4,7.2,7.5H52.7c-0.3,0-0.6,0.2-0.6,0.5
			c0,0,0,0.1,0,0.1c-0.1,6.7,3.5,10.8,9.7,10.8C67,31.3,72,27.5,72,20.4z M55.7,22.6h12.5c-0.2,3.4-3.1,6-6.5,5.9
			C58,28.5,55.9,26.1,55.7,22.6z"/>
		<path class="st0" d="M120.9,20.3c0-6.8-4.7-10.9-10.8-10.9s-10.8,4-10.8,10.9s4.6,11,10.8,11S120.9,27,120.9,20.3z M110.1,28.3
			c-3.9,0-7.2-3.1-7.2-8s3.4-7.9,7.2-7.9c3.8,0,7.1,3,7.1,7.9S114,28.3,110.1,28.3L110.1,28.3z"/>
		<path class="st0" d="M124.9,31h1.5c0.3,0,0.6-0.2,0.6-0.5c0,0,0,0,0-0.1c0-0.1-0.1-2.2-0.1-2.2h0.1c0.4,0.7,2.3,3.1,6.8,3.1
			c5.8,0,8-3,8-6.1c0-7.3-13.3-4.7-13.3-9.6c0-2.2,2-3.4,4.1-3.4c4,0,5.4,2.3,5.4,3.5v0.6c0,0.3,0.2,0.6,0.6,0.6c0,0,0,0,0,0h1.6
			c0.3,0,0.5-0.2,0.6-0.5c0,0,0,0,0-0.1v-6c0-0.3-0.2-0.5-0.5-0.6c0,0-0.1,0-0.1,0h-1.4c-0.3,0-0.5,0.2-0.6,0.5c0,0,0,0.1,0,0.1
			l0.1,1.6h-0.1c-1-1.4-2.9-2.5-6.1-2.5c-4.1,0-7.2,2.3-7.2,6.1c0,7.5,13,5.3,13,9.6c0,2.1-1.6,3.4-4.7,3.4c-4.9,0-6.1-3.7-6.1-3.7
			V24c0-0.3-0.2-0.6-0.5-0.6c0,0,0,0-0.1,0h-1.7c-0.3,0-0.5,0.2-0.6,0.5c0,0,0,0.1,0,0.1v6.5c0,0.3,0.2,0.5,0.5,0.5
			C124.8,31,124.8,31,124.9,31z"/>
		<path class="st0" d="M49.6,28.3H48l-2.5-4.6c-0.3-0.6-0.7-1.2-1.1-1.7c2.6-0.7,4.4-3.1,4.2-5.8c0-4-2.9-6.5-7.5-6.5h-9.3
			c-0.3,0-0.6,0.2-0.6,0.5c0,0,0,0.1,0,0.1v1.5c0,0.3,0.2,0.6,0.6,0.6c0,0,0,0,0.1,0h2v16h-2c-0.3,0-0.6,0.2-0.6,0.5
			c0,0,0,0.1,0,0.1v1.5c0,0.3,0.2,0.6,0.6,0.6c0,0,0.1,0,0.1,0h7.6c0.3,0,0.6-0.2,0.6-0.5c0,0,0,0,0-0.1v-1.5c0-0.3-0.2-0.6-0.5-0.6
			c0,0-0.1,0-0.1,0h-2.5v-5.7h3.6c0.9,0,1.3,0.4,1.7,1.3l2.8,5.5c0.3,0.9,1.1,1.5,2,1.5h2.6c0.3,0,0.6-0.2,0.6-0.5c0,0,0,0,0-0.1
			v-1.5C50.2,28.6,50,28.3,49.6,28.3C49.7,28.3,49.7,28.3,49.6,28.3z M45.4,16.3c0,2.6-1.6,3.8-4.9,3.8h-3.6v-7.8h3.6
			C42.7,12.4,45.4,13.1,45.4,16.3L45.4,16.3z"/>
		<path class="st0" d="M86.5,9.4c-3-0.2-5.8,1.5-7.1,4.2V8.7l0,0V3.2c0-0.4-0.2-0.5-0.6-0.5h-5.3c-0.3,0-0.6,0.2-0.6,0.5V5
			c0,0.4,0.2,0.5,0.6,0.5H76v24.9c0,0.3,0.2,0.5,0.4,0.5c0,0,0.1,0,0.1,0h2.2c0.3,0,0.6-0.2,0.6-0.5v-3.6l0,0
			c1.2,2.8,4.1,4.5,7.1,4.4c5.8,0,9.8-4.3,9.8-11.1C96.2,13.9,92.4,9.4,86.5,9.4z M86,28.3c-3.7,0-6.6-3.1-6.6-8
			c0-5.1,3.1-7.9,6.6-7.9s6.7,3,6.7,7.8S89.9,28.3,86,28.3z"/>
		<path class="st1" d="M16.5,0H0v16.5c0,0.2,0.2,0.4,0.4,0.5c0,0,0,0,0,0h1.8c0.2,0,0.4-0.2,0.5-0.4c0,0,0,0,0-0.1V2.7h13.8
			c0.3,0,0.5-0.2,0.5-0.4c0,0,0,0,0,0V0.5C17,0.2,16.7,0,16.5,0C16.5,0,16.5,0,16.5,0z"/>
	</g>
	<g>
		<path class="st1" d="M154.5,5.4h44.3l0,0v25.8c0,2.4-1.9,4.3-4.3,4.3h-44.3l0,0V9.6C150.2,7.3,152.1,5.4,154.5,5.4
			C154.5,5.4,154.5,5.4,154.5,5.4z"/>
		<path class="st0" d="M174.7,19.7c1.5-1,2.4-2.7,2.4-4.5c0.1-1.6-0.6-3.2-1.8-4.4c-1.3-1.2-3.1-1.8-4.9-1.7h-9.8
			c-0.3,0-0.6,0.2-0.6,0.5c0,0,0,0.1,0,0.1v1.5c0,0.3,0.2,0.6,0.5,0.6c0,0,0.1,0,0.1,0h2.1v16.7h-2.1c-0.3,0-0.6,0.2-0.6,0.5
			c0,0,0,0.1,0,0.1v1.5c0,0.3,0.2,0.6,0.5,0.6c0,0,0.1,0,0.1,0h9.8c2.1,0.1,4.1-0.5,5.8-1.7c1.3-1.2,2.1-2.9,2-4.7
			C178.4,22.6,176.9,20.4,174.7,19.7z M170.2,28.6h-4.4v-7.4h4.6c3.1,0,4.6,1.2,4.6,3.5c0.1,1.1-0.4,2.2-1.2,2.9
			C172.8,28.3,171.5,28.7,170.2,28.6z M165.9,11.9h4c1,0,2,0.3,2.9,0.8c0.8,0.6,1.2,1.6,1.1,2.5c0.1,1-0.3,1.9-1.1,2.5
			c-0.7,0.6-1.7,0.9-2.6,0.9h-4.4L165.9,11.9z"/>
		<path class="st0" d="M186.2,11.9v16.7h2.1c0.3,0,0.6,0.2,0.6,0.5c0,0,0,0.1,0,0.1v1.5c0,0.3-0.2,0.6-0.5,0.6c0,0-0.1,0-0.1,0h-7.3
			c-0.3,0-0.6-0.2-0.6-0.5c0,0,0,0,0-0.1v-1.5c0-0.3,0.2-0.6,0.5-0.6c0,0,0.1,0,0.1,0h2.1V11.9h-2.1c-0.3,0-0.6-0.2-0.6-0.5
			c0,0,0-0.1,0-0.1V9.8c0-0.3,0.2-0.6,0.6-0.6c0,0,0.1,0,0.1,0h7.3c0.3,0,0.6,0.2,0.6,0.5c0,0,0,0.1,0,0.1v1.5
			c0,0.3-0.2,0.6-0.5,0.6c0,0-0.1,0-0.1,0L186.2,11.9z"/>
	</g>
</g>
</svg>
